<?xml version="1.0" encoding="UTF-8"?>
<svg id="Camada_2" data-name="Camada 2" xmlns="http://www.w3.org/2000/svg" viewBox="0 0 74.98 79.07">
  <defs>
    <style>
      .cls-1 {
        fill: #fff;
      }
    </style>
  </defs>
  <g id="Camada_1-2" data-name="Camada 1">
    <g>
      <g>
        <path class="cls-1" d="M37.54,14.65l-.05-.05c-.39.34-.78.69-1.17,1.05.39,0,.77-.01,1.16-.01s.78,0,1.16.01c-.37-.34-.74-.68-1.11-1.01Z"/>
        <circle class="cls-1" cx="37.49" cy="20.43" r="2.01"/>
        <path class="cls-1" d="M44.05,19.57c-.04-3.35-.32-6.55-.82-9.37-.53.34-1.08.72-1.63,1.11.43,2.76.66,5.88.66,9.12,0,.39,0,.78-.01,1.16.62-.67,1.22-1.35,1.79-2.02Z"/>
        <path class="cls-1" d="M35.68,12.39c.46-.41.92-.8,1.38-1.18-.93-.75-1.85-1.44-2.75-2.08-.13.62-.25,1.27-.36,1.94.57.42,1.15.86,1.73,1.32Z"/>
        <path class="cls-1" d="M30.42,18.34c-.09.1-.18.2-.26.3.08.1.17.2.25.31,0-.2,0-.4.01-.6Z"/>
        <path class="cls-1" d="M30.53,16.02c.04-.61.09-1.22.14-1.81-1.18.13-2.32.29-3.41.48.34.53.72,1.08,1.11,1.63.7-.11,1.41-.21,2.15-.29Z"/>
        <path class="cls-1" d="M51.55,15.56c-.28-.08-.57-.16-.86-.23-.31.52-.66,1.05-1.02,1.59.48.11.94.24,1.38.36,3.75,1.09,5.08,2.38,5.08,3.16s-1.33,2.07-5.08,3.16c-3.61,1.05-8.43,1.63-13.56,1.63s-9.95-.58-13.56-1.63c-3.75-1.09-5.08-2.38-5.08-3.16s1.33-2.07,5.08-3.16c.44-.13.91-.25,1.38-.36-.36-.54-.7-1.07-1.02-1.59-.29.08-.58.15-.86.24-4.16,1.21-6.37,2.89-6.37,4.87s2.2,3.66,6.37,4.87c3.77,1.09,8.76,1.7,14.06,1.7s10.29-.6,14.06-1.7c4.16-1.21,6.37-2.89,6.37-4.87s-2.2-3.66-6.37-4.87Z"/>
        <path class="cls-1" d="M28.13,23.96c.42-.57.86-1.15,1.32-1.73-.4-.46-.8-.92-1.18-1.38-.75.93-1.44,1.85-2.08,2.75.62.13,1.27.25,1.94.36Z"/>
        <path class="cls-1" d="M44.85,8.6c2.24-1.23,3.81-1.67,4.78-1.67.51,0,.85.12,1.04.31.55.55.52,2.4-1.36,5.82-1.81,3.29-4.81,7.11-8.44,10.74-.28.28-.55.55-.83.82.92-.04,1.82-.09,2.69-.16,2.51-2.57,4.71-5.23,6.41-7.73l.08-.13c.18-.27.36-.53.52-.79,0,0,0-.01.01-.02.15-.23.29-.46.43-.68.24-.4.47-.8.69-1.18,2.09-3.8,2.45-6.55,1.06-7.95-1.4-1.4-4.15-1.03-7.95,1.06-.38.21-.76.43-1.14.66h0c-.51.31-1.03.64-1.53.98l-.04.03c-2.52,1.71-5.21,3.92-7.81,6.46-.07.88-.13,1.78-.16,2.69.27-.27.53-.55.81-.82,3.63-3.63,7.45-6.63,10.74-8.44Z"/>
        <g>
          <path class="cls-1" d="M41.41,13.97c-.13,0-.26-.02-.39-.02.14.14.29.27.43.41-.01-.13-.03-.26-.04-.39Z"/>
          <path class="cls-1" d="M44.3,14.21c.06.6.11,1.2.15,1.81.74.08,1.46.18,2.16.29.39-.55.77-1.09,1.11-1.63-1.09-.19-2.23-.35-3.42-.47Z"/>
        </g>
        <g>
          <path class="cls-1" d="M44.56,18.34c0,.2,0,.41.01.61.09-.1.17-.21.26-.31-.09-.1-.18-.2-.27-.3Z"/>
          <path class="cls-1" d="M41.52,15.17c-.74-.72-1.49-1.42-2.24-2.09-.46.37-.92.76-1.38,1.16,1,.88,1.99,1.81,2.98,2.8.27.27.54.55.81.83-.04-.91-.09-1.81-.16-2.7Z"/>
        </g>
        <path class="cls-1" d="M24.8,15.12c.13.22.27.44.42.68,0,0,0,0,0,.01.17.26.34.53.53.8l.1.14c1.7,2.5,3.89,5.14,6.4,7.71.88.07,1.78.13,2.69.16-.28-.27-.56-.54-.83-.82-3.63-3.63-6.63-7.45-8.44-10.74-1.88-3.42-1.91-5.27-1.36-5.82.19-.19.53-.31,1.04-.31.97,0,2.54.44,4.78,1.67.4.22.81.46,1.23.72.12-.64.26-1.25.4-1.84-.26-.15-.52-.3-.77-.44-3.8-2.09-6.55-2.45-7.95-1.06-1.4,1.4-1.03,4.15,1.06,7.95.21.39.45.79.69,1.19Z"/>
        <path class="cls-1" d="M48.78,23.6c-.63-.9-1.33-1.82-2.07-2.75-.38.46-.77.92-1.18,1.38.46.58.9,1.16,1.32,1.73.67-.11,1.32-.23,1.94-.36Z"/>
        <path class="cls-1" d="M50.44,26.15c-.59.15-1.2.28-1.84.41.26.42.5.83.72,1.23,1.88,3.42,1.91,5.27,1.36,5.82-.55.55-2.4.52-5.82-1.36-2.08-1.15-4.38-2.77-6.7-4.72-.22,0-.44,0-.66,0-.7,0-1.4-.01-2.08-.03,2.95,2.66,5.92,4.85,8.59,6.31,2.29,1.26,4.19,1.89,5.65,1.89.97,0,1.74-.28,2.29-.83,1.4-1.4,1.03-4.15-1.06-7.95-.14-.26-.29-.52-.44-.78Z"/>
        <g>
          <path class="cls-1" d="M39.28,27.76c.1-.09.2-.17.3-.26-.2,0-.4,0-.6.01.1.08.2.17.3.25Z"/>
          <path class="cls-1" d="M35.68,28.46c-.58.46-1.16.91-1.73,1.33h0s-.27.19-.27.19c-.01.01-.03.02-.04.03-.19.14-.39.27-.58.41-.09.06-.18.12-.27.18-.07.05-.15.1-.22.15-.18.12-.36.24-.54.36l-.68.44h0c-.42.24-.82.48-1.23.7-3.42,1.88-5.27,1.91-5.82,1.36-.55-.55-.52-2.4,1.36-5.82.22-.4.46-.81.72-1.23-.64-.12-1.25-.26-1.84-.41-.15.26-.3.52-.44.78-2.09,3.8-2.45,6.55-1.06,7.95.56.56,1.33.83,2.29.83,1.46,0,3.37-.63,5.65-1.89,1.91-1.05,3.97-2.47,6.08-4.17-.46-.38-.92-.77-1.38-1.18Z"/>
        </g>
        <path class="cls-1" d="M31.27,27.24c.13,1.18.28,2.33.47,3.41.53-.34,1.08-.72,1.63-1.11-.11-.7-.2-1.42-.29-2.16-.61-.04-1.22-.09-1.81-.14Z"/>
        <path class="cls-1" d="M43.94,24.35c0-.13.02-.27.02-.4-.14.15-.28.29-.42.44.13-.01.26-.02.39-.04Z"/>
        <g>
          <path class="cls-1" d="M31.02,23.95c0,.13,0,.27.02.4.13.01.27.03.4.04-.14-.15-.28-.29-.42-.44Z"/>
          <path class="cls-1" d="M42.36,6.37c-1.21-4.16-2.89-6.37-4.87-6.37s-3.66,2.2-4.87,6.37c-.13.44-.25.9-.36,1.37-.02.07-.03.14-.05.22-.04.17-.08.35-.12.52-.03.14-.06.28-.09.42,0,.05-.02.1-.03.14-.03.13-.05.26-.08.4l-.03.17c-.56,2.96-.88,6.38-.93,9.97.57.67,1.17,1.35,1.79,2.02,0-.39-.01-.77-.01-1.16,0-2.59.15-5.1.43-7.42h0c.28-2.27.68-4.36,1.2-6.15,1.09-3.75,2.38-5.08,3.16-5.08s2.07,1.33,3.16,5.08c.13.44.25.9.36,1.38.53-.35,1.04-.69,1.55-1,.01,0,.02-.01.03-.02-.08-.29-.15-.58-.23-.86Z"/>
        </g>
        <g>
          <path class="cls-1" d="M43.23,30.65c.19-1.08.35-2.22.48-3.41-.6.06-1.2.1-1.82.15-.08.74-.18,1.45-.29,2.15.55.4,1.1.77,1.63,1.11Z"/>
          <path class="cls-1" d="M41.01,32.61c-.11.48-.23.94-.36,1.38-1.09,3.75-2.38,5.08-3.16,5.08s-2.07-1.33-3.16-5.08c-.13-.44-.25-.9-.36-1.38-.54.36-1.07.7-1.59,1.01.08.29.15.58.24.86,1.21,4.16,2.89,6.37,4.87,6.37s3.66-2.2,4.87-6.37c.08-.28.16-.57.24-.86-.52-.32-1.05-.65-1.59-1.02Z"/>
        </g>
      </g>
      <g>
        <rect class="cls-1" x="0" y="77.35" width="74.98" height="1.72" transform="translate(74.98 156.42) rotate(-180)"/>
        <g>
          <rect class="cls-1" x="63.11" y="46.42" width="11.86" height="1.72" transform="translate(138.09 94.57) rotate(-180)"/>
          <rect class="cls-1" x="0" y="46.42" width="11.86" height="1.72" transform="translate(11.86 94.57) rotate(-180)"/>
          <g>
            <path class="cls-1" d="M14.48,45.33h2.87v.87h-1.93v.87h1.78v.87h-1.78v1.67h-.94v-4.28Z"/>
            <path class="cls-1" d="M20.31,45.33h.78l1.86,4.28h-1.06l-.37-.91h-1.66l-.36.91h-1.04l1.85-4.28ZM20.68,46.57l-.52,1.33h1.05l-.53-1.33Z"/>
            <path class="cls-1" d="M27.4,46.44c-.19-.22-.46-.35-.81-.35-.71,0-1.24.58-1.24,1.38s.53,1.38,1.21,1.38c.38,0,.69-.17.88-.46l.79.59c-.36.51-.96.74-1.55.74-1.34,0-2.31-.88-2.31-2.25s.97-2.25,2.31-2.25c.48,0,1.08.16,1.44.63l-.73.59Z"/>
            <path class="cls-1" d="M33.56,47.96c0,1.01-.62,1.76-1.8,1.76s-1.81-.75-1.81-1.76v-2.63h.94v2.59c0,.53.36.92.86.92s.86-.4.86-.92v-2.59h.94v2.63Z"/>
            <path class="cls-1" d="M35.68,45.33h.94v3.41h1.75v.87h-2.69v-4.28Z"/>
            <path class="cls-1" d="M40.1,45.33h1.41c1.38,0,2.53.59,2.53,2.15,0,1.38-1.13,2.13-2.41,2.13h-1.54v-4.28ZM41.04,48.74h.49c.88,0,1.54-.33,1.54-1.31,0-.84-.67-1.23-1.47-1.23h-.56v2.54Z"/>
            <path class="cls-1" d="M47.31,45.33h.78l1.86,4.28h-1.06l-.37-.91h-1.66l-.36.91h-1.04l1.85-4.28ZM47.67,46.57l-.52,1.33h1.05l-.53-1.33Z"/>
            <path class="cls-1" d="M51.59,45.33h1.41c1.38,0,2.53.59,2.53,2.15,0,1.38-1.13,2.13-2.41,2.13h-1.54v-4.28ZM52.53,48.74h.49c.88,0,1.54-.33,1.54-1.31,0-.84-.67-1.23-1.47-1.23h-.56v2.54Z"/>
            <path class="cls-1" d="M57.43,45.33h2.91v.87h-1.96v.8h1.86v.87h-1.86v.87h2.07v.87h-3.02v-4.28Z"/>
          </g>
        </g>
        <g>
          <path class="cls-1" d="M11.06,52.28c2.79,0,8.24,1.16,8.24,4.87v2.42h-3.65v-1.23c0-1.59-2.61-2.33-4.51-2.33-3.89,0-6.96,2.79-6.96,7.33,0,4.26,3.13,7.69,7.08,7.69s6.59-2.88,6.59-2.88l2.11,2.88s-3.16,3.74-8.77,3.74C4.56,74.78.03,69.79.03,63.35s4.72-11.06,11.03-11.06Z"/>
          <path class="cls-1" d="M25.07,56.05h-1.99v-3.4h8.86c6.71,0,11.1,3.98,11.1,10.85s-4.38,10.91-11.1,10.91h-4.78c-1.47,0-2.08-.61-2.08-2.08v-16.27ZM29.75,71.01h1.96c4.35,0,7.14-2.61,7.14-7.51s-2.85-7.45-7.14-7.45h-2.64v14.28c0,.43.25.67.67.67Z"/>
          <path class="cls-1" d="M48.65,56.05h-1.99v-3.4h9.96c4.08,0,6.93,2.85,6.93,7.08s-2.85,7.17-6.93,7.17h-3.95v7.51h-4.02v-18.36ZM55.88,63.47c2.27,0,3.56-1.47,3.56-3.74s-1.29-3.68-3.49-3.68h-3.28v7.42h3.22Z"/>
          <polygon class="cls-1" points="68.97 71.01 66.8 71.01 66.8 74.41 74.95 74.41 74.95 71.01 72.77 71.01 72.77 56.05 74.95 56.05 74.95 52.65 66.8 52.65 66.8 56.05 68.97 56.05 68.97 71.01"/>
        </g>
      </g>
    </g>
  </g>
</svg>