<?xml version="1.0" encoding="UTF-8"?>
<svg id="Camada_2" data-name="Camada 2" xmlns="http://www.w3.org/2000/svg" viewBox="0 0 180.25 61.21">
  <defs>
    <style>
      .cls-1 {
        fill: #c44656;
      }

      .cls-2 {
        fill: #c761a0;
      }

      .cls-3 {
        fill: #57c1d4;
      }

      .cls-4 {
        fill: #58595b;
      }

      .cls-5 {
        fill: #114777;
      }
    </style>
  </defs>
  <g id="Camada_1-2" data-name="Camada 1">
    <g>
      <g>
        <path class="cls-3" d="M30.61,61.21c-2.96,0-5.49-3.3-7.3-9.54-1.64-5.65-2.54-13.13-2.54-21.07s.9-15.42,2.54-21.07C25.12,3.3,27.64,0,30.61,0s5.49,3.3,7.3,9.54c1.64,5.65,2.54,13.13,2.54,21.07s-.9,15.42-2.54,21.07c-1.81,6.24-4.34,9.54-7.3,9.54ZM30.61,2.68c-1.16,0-3.1,1.99-4.73,7.61-1.57,5.41-2.44,12.63-2.44,20.32s.87,14.91,2.44,20.32c1.63,5.62,3.57,7.61,4.73,7.61s3.1-1.99,4.73-7.61c1.57-5.41,2.44-12.63,2.44-20.32s-.87-14.91-2.44-20.32c-1.63-5.62-3.57-7.61-4.73-7.61Z"/>
        <path class="cls-5" d="M12.4,53.5c-1.45,0-2.6-.42-3.44-1.25-2.09-2.09-1.55-6.21,1.58-11.9,2.83-5.15,7.48-11.08,13.1-16.7s11.54-10.27,16.7-13.1c5.69-3.13,9.81-3.68,11.9-1.58,2.09,2.09,1.55,6.21-1.58,11.9-2.83,5.15-7.48,11.08-13.1,16.7-5.61,5.61-11.54,10.27-16.7,13.1-3.43,1.88-6.28,2.83-8.47,2.83ZM48.79,10.39c-1.45,0-3.8.65-7.16,2.5-4.94,2.71-10.65,7.21-16.09,12.65-5.44,5.44-9.93,11.16-12.65,16.09-2.82,5.12-2.86,7.9-2.04,8.72.82.82,3.6.78,8.72-2.04,4.94-2.71,10.65-7.21,16.09-12.65,5.44-5.44,9.93-11.16,12.65-16.09,2.82-5.12,2.86-7.9,2.04-8.72-.28-.28-.8-.46-1.56-.46Z"/>
        <path class="cls-2" d="M48.81,53.5c-2.19,0-5.04-.95-8.47-2.83-5.15-2.83-11.08-7.48-16.7-13.1s-10.27-11.54-13.1-16.7c-3.13-5.69-3.68-9.81-1.58-11.9,2.09-2.09,6.21-1.55,11.9,1.58,5.15,2.83,11.08,7.48,16.7,13.1,5.62,5.61,10.27,11.54,13.1,16.7,3.13,5.69,3.68,9.81,1.58,11.9-.83.83-1.99,1.25-3.44,1.25ZM12.42,10.39c-.76,0-1.28.18-1.56.46-.82.82-.78,3.6,2.04,8.72,2.71,4.94,7.21,10.65,12.65,16.09,5.44,5.44,11.16,9.93,16.09,12.65,5.12,2.82,7.9,2.86,8.72,2.04.82-.82.78-3.6-2.04-8.72-2.71-4.94-7.21-10.65-12.65-16.09-5.44-5.44-11.16-9.93-16.09-12.65-3.36-1.85-5.71-2.5-7.16-2.5Z"/>
        <path class="cls-1" d="M30.61,40.45c-7.94,0-15.42-.9-21.07-2.54-6.24-1.81-9.54-4.34-9.54-7.3s3.3-5.49,9.54-7.3c5.65-1.64,13.13-2.54,21.07-2.54s15.42.9,21.07,2.54c6.24,1.81,9.54,4.34,9.54,7.3s-3.3,5.49-9.54,7.3c-5.65,1.64-13.13,2.54-21.07,2.54ZM30.61,23.44c-7.7,0-14.91.87-20.32,2.44-5.62,1.63-7.61,3.57-7.61,4.73s1.99,3.1,7.61,4.73c5.41,1.57,12.63,2.44,20.32,2.44s14.91-.87,20.32-2.44c5.62-1.63,7.61-3.57,7.61-4.73s-1.99-3.1-7.61-4.73c-5.41-1.57-12.63-2.44-20.32-2.44Z"/>
        <circle class="cls-4" cx="30.61" cy="30.61" r="3.01"/>
        <path class="cls-3" d="M30.61,61.21c-2.96,0-5.49-3.3-7.3-9.54-1.64-5.65-2.54-13.13-2.54-21.07s.9-15.42,2.54-21.07C25.12,3.3,27.64,0,30.61,0s5.49,3.3,7.3,9.54c1.64,5.65,2.54,13.13,2.54,21.07s-.9,15.42-2.54,21.07c-1.81,6.24-4.34,9.54-7.3,9.54ZM30.61,2.68c-1.16,0-3.1,1.99-4.73,7.61-1.57,5.41-2.44,12.66-2.44,20.32,0,7.69.87,14.91,2.44,20.32,1.63,5.62,3.57,7.61,4.73,7.61s3.1-1.99,4.73-7.61c1.57-5.41,2.44-12.63,2.44-20.32s-.87-14.91-2.44-20.32c-1.63-5.62-3.57-7.61-4.73-7.61Z"/>
        <path class="cls-5" d="M52.25,8.96c-2.09-2.09-6.21-1.55-11.9,1.58-5.14,2.83-11.05,7.46-16.66,13.06-.01.01-.22,4.06-.2,4.05.67-.71,1.35-1.42,2.06-2.12,5.44-5.44,11.16-9.93,16.09-12.65,3.36-1.85,5.71-2.5,7.16-2.5.76,0,1.28.18,1.56.46.82.82.78,3.6-2.04,8.72-2.71,4.94-7.21,10.65-12.65,16.09-5.44,5.44-11.16,9.93-16.09,12.65-5.12,2.82-7.9,2.86-8.72,2.04-.82-.82-.78-3.6,2.04-8.72,1.48-2.69,3.49-5.61,5.89-8.6-.24-.04-.49-.11-.74-.21-.68-.27-1.21-.71-1.49-1.28-2.44,3.04-4.48,6.03-6,8.8-3.13,5.69-3.68,9.81-1.58,11.9.83.83,1.99,1.25,3.44,1.25,2.19,0,5.04-.95,8.47-2.83,5.15-2.83,11.08-7.48,16.7-13.1,5.62-5.61,10.27-11.54,13.1-16.7,3.13-5.69,3.68-9.81,1.58-11.9Z"/>
        <g>
          <path class="cls-2" d="M37.53,23.61c-1.24-1.24-2.49-2.43-3.75-3.56-.58-.52-.8-.72-1.09-.97-.51.41-1.55,1.29-2.07,1.75,1.69,1.47,3.39,3.05,5.06,4.72.7.7,1.39,1.41,2.06,2.12-.03-1.45-.12-2.76-.2-4.05Z"/>
          <path class="cls-2" d="M50.67,40.34c-1.39-2.53-3.22-5.24-5.38-8.01-.12.35-.32.68-.58.96-.39.43-.97.63-1.53.68,2.07,2.66,3.82,5.25,5.15,7.66,2.82,5.12,2.86,7.9,2.04,8.72-.82.82-3.6.78-8.72-2.04-4.94-2.71-10.65-7.21-16.09-12.65-5.44-5.44-9.93-11.16-12.65-16.09-2.82-5.12-2.86-7.9-2.04-8.72.28-.28.8-.46,1.56-.46,1.45,0,3.8.65,7.16,2.5.32.18.64.36.97.55-.1-.52-.11-1.09-.01-1.73.07-.41.28-.76.57-1.03-.08-.04-.16-.09-.23-.13-5.69-3.13-9.81-3.68-11.9-1.58-2.09,2.09-1.55,6.21,1.58,11.9,2.83,5.15,7.48,11.08,13.1,16.7s11.54,10.27,16.7,13.1c3.43,1.88,6.28,2.83,8.47,2.83,1.45,0,2.6-.42,3.44-1.25,2.09-2.09,1.55-6.21-1.58-11.9Z"/>
        </g>
        <path class="cls-1" d="M49.96,35.6c-5.29,1.4-12.11,2.17-19.35,2.17s-14.01-.76-19.29-2.15c-.32.87-.7,1.69-1.17,2.45,5.57,1.53,12.8,2.38,20.46,2.38s15.42-.9,21.07-2.54c.5-.14.97-.29,1.43-.45-1.16-.42-2.23-1.02-3.15-1.86Z"/>
      </g>
      <g>
        <rect class="cls-5" x="67.89" y="53.39" width="112.36" height="2.58" transform="translate(248.14 109.36) rotate(-180)"/>
        <g>
          <rect class="cls-5" x="162.47" y="7.05" width="17.78" height="2.58" transform="translate(342.72 16.67) rotate(-180)"/>
          <rect class="cls-5" x="67.89" y="7.05" width="17.78" height="2.58" transform="translate(153.55 16.67) rotate(-180)"/>
          <g>
            <path class="cls-5" d="M89.59,5.41h4.3v1.3h-2.89v1.3h2.67v1.3h-2.67v2.5h-1.41v-6.41Z"/>
            <path class="cls-5" d="M98.33,5.41h1.17l2.79,6.41h-1.59l-.55-1.36h-2.49l-.53,1.36h-1.56l2.77-6.41ZM98.87,7.27l-.78,1.99h1.57l-.79-1.99Z"/>
            <path class="cls-5" d="M108.94,7.07c-.28-.34-.69-.53-1.21-.53-1.07,0-1.86.87-1.86,2.07s.79,2.07,1.81,2.07c.57,0,1.03-.25,1.32-.69l1.18.88c-.53.76-1.44,1.11-2.32,1.11-2,0-3.46-1.31-3.46-3.37s1.46-3.37,3.46-3.37c.72,0,1.62.24,2.16.94l-1.09.89Z"/>
            <path class="cls-5" d="M118.18,9.35c0,1.51-.92,2.64-2.7,2.64s-2.71-1.12-2.71-2.64v-3.94h1.41v3.89c0,.79.54,1.39,1.3,1.39s1.29-.6,1.29-1.39v-3.89h1.41v3.94Z"/>
            <path class="cls-5" d="M121.35,5.41h1.41v5.11h2.62v1.3h-4.03v-6.41Z"/>
            <path class="cls-5" d="M127.98,5.41h2.12c2.07,0,3.8.88,3.8,3.22,0,2.07-1.69,3.19-3.61,3.19h-2.31v-6.41ZM129.39,10.51h.73c1.31,0,2.3-.5,2.3-1.96,0-1.26-1.01-1.85-2.2-1.85h-.83v3.8Z"/>
            <path class="cls-5" d="M138.78,5.41h1.17l2.79,6.41h-1.59l-.55-1.36h-2.49l-.53,1.36h-1.56l2.77-6.41ZM139.32,7.27l-.78,1.99h1.57l-.79-1.99Z"/>
            <path class="cls-5" d="M145.2,5.41h2.12c2.07,0,3.8.88,3.8,3.22,0,2.07-1.69,3.19-3.61,3.19h-2.31v-6.41ZM146.61,10.51h.73c1.31,0,2.3-.5,2.3-1.96,0-1.26-1.01-1.85-2.2-1.85h-.83v3.8Z"/>
            <path class="cls-5" d="M153.95,5.41h4.36v1.3h-2.94v1.2h2.78v1.3h-2.78v1.3h3.11v1.3h-4.52v-6.41Z"/>
          </g>
        </g>
        <g>
          <path class="cls-5" d="M84.47,15.83c4.18,0,12.36,1.75,12.36,7.3v3.63h-5.47v-1.84c0-2.39-3.9-3.49-6.75-3.49-5.83,0-10.43,4.18-10.43,10.98,0,6.38,4.69,11.53,10.61,11.53s9.88-4.32,9.88-4.32l3.17,4.32s-4.73,5.6-13.14,5.6c-9.97,0-16.77-7.49-16.77-17.13s7.07-16.58,16.54-16.58Z"/>
          <path class="cls-5" d="M105.45,21.48h-2.99v-5.1h13.27c10.06,0,16.63,5.97,16.63,16.26s-6.57,16.35-16.63,16.35h-7.17c-2.2,0-3.12-.92-3.12-3.12v-24.39ZM112.48,43.9h2.94c6.52,0,10.7-3.9,10.7-11.25s-4.27-11.16-10.7-11.16h-3.95v21.4c0,.64.37,1.01,1.01,1.01Z"/>
          <path class="cls-5" d="M140.79,21.48h-2.99v-5.1h14.93c6.11,0,10.38,4.27,10.38,10.61s-4.27,10.75-10.38,10.75h-5.93v11.25h-6.02v-27.51ZM151.63,32.6c3.4,0,5.33-2.2,5.33-5.6s-1.93-5.51-5.24-5.51h-4.91v11.12h4.82Z"/>
          <polygon class="cls-5" points="171.25 43.9 167.99 43.9 167.99 48.99 180.21 48.99 180.21 43.9 176.95 43.9 176.95 21.48 180.21 21.48 180.21 16.38 167.99 16.38 167.99 21.48 171.25 21.48 171.25 43.9"/>
        </g>
      </g>
    </g>
  </g>
</svg>