<?xml version="1.0" encoding="UTF-8"?>
<svg id="Camada_2" data-name="Camada 2" xmlns="http://www.w3.org/2000/svg" viewBox="0 0 72.83 76.8">
  <defs>
    <style>
      .cls-1 {
        fill: #c44656;
      }

      .cls-2 {
        fill: #c761a0;
      }

      .cls-3 {
        fill: #57c1d4;
      }

      .cls-4 {
        fill: #58595b;
      }

      .cls-5 {
        fill: #114777;
      }
    </style>
  </defs>
  <g id="Camada_1-2" data-name="Camada 1">
    <g>
      <g>
        <path class="cls-3" d="M36.41,39.67c-1.92,0-3.56-2.14-4.73-6.18-1.06-3.66-1.65-8.51-1.65-13.66s.59-10,1.65-13.66c1.18-4.04,2.81-6.18,4.73-6.18s3.56,2.14,4.73,6.18c1.06,3.66,1.65,8.51,1.65,13.66s-.59,10-1.65,13.66c-1.18,4.04-2.81,6.18-4.73,6.18ZM36.41,1.73c-.75,0-2.01,1.29-3.06,4.93-1.02,3.51-1.58,8.18-1.58,13.17s.56,9.67,1.58,13.17c1.06,3.64,2.31,4.93,3.06,4.93s2.01-1.29,3.06-4.93c1.02-3.51,1.58-8.18,1.58-13.17s-.56-9.67-1.58-13.17c-1.06-3.64-2.31-4.93-3.06-4.93Z"/>
        <path class="cls-5" d="M24.61,34.67c-.94,0-1.69-.27-2.23-.81-1.36-1.36-1-4.03,1.03-7.72,1.84-3.34,4.85-7.18,8.49-10.82s7.48-6.65,10.82-8.49c3.69-2.03,6.36-2.38,7.72-1.03,1.36,1.36,1,4.03-1.03,7.72-1.84,3.34-4.85,7.18-8.49,10.82-3.64,3.64-7.48,6.65-10.82,8.49-2.22,1.22-4.07,1.84-5.49,1.84ZM48.2,6.74c-.94,0-2.46.42-4.64,1.62-3.2,1.76-6.9,4.67-10.43,8.2-3.53,3.53-6.44,7.23-8.2,10.43-1.83,3.32-1.85,5.12-1.32,5.65.53.53,2.33.51,5.65-1.32,3.2-1.76,6.9-4.67,10.43-8.2,3.53-3.53,6.44-7.23,8.2-10.43,1.83-3.32,1.85-5.12,1.32-5.65-.18-.18-.52-.3-1.01-.3Z"/>
        <path class="cls-2" d="M48.21,34.67c-1.42,0-3.27-.61-5.49-1.84-3.34-1.84-7.18-4.85-10.82-8.49s-6.65-7.48-8.49-10.82c-2.03-3.69-2.38-6.36-1.03-7.72,1.36-1.36,4.03-1,7.72,1.03,3.34,1.84,7.18,4.85,10.82,8.49,3.64,3.64,6.65,7.48,8.49,10.82,2.03,3.69,2.38,6.36,1.03,7.72-.54.54-1.29.81-2.23.81ZM24.62,6.74c-.5,0-.83.12-1.01.3-.53.53-.51,2.33,1.32,5.65,1.76,3.2,4.67,6.9,8.2,10.43,3.53,3.53,7.23,6.44,10.43,8.2,3.32,1.83,5.12,1.85,5.65,1.32.53-.53.51-2.33-1.32-5.65-1.76-3.2-4.67-6.9-8.2-10.43-3.53-3.53-7.23-6.44-10.43-8.2-2.18-1.2-3.7-1.62-4.64-1.62Z"/>
        <path class="cls-1" d="M36.41,26.22c-5.15,0-10-.59-13.66-1.65-4.04-1.18-6.18-2.81-6.18-4.73s2.14-3.56,6.18-4.73c3.66-1.06,8.51-1.65,13.66-1.65s10,.59,13.66,1.65c4.04,1.18,6.18,2.81,6.18,4.73s-2.14,3.56-6.18,4.73c-3.66,1.06-8.51,1.65-13.66,1.65ZM36.41,15.19c-4.99,0-9.67.56-13.17,1.58-3.64,1.06-4.93,2.31-4.93,3.06s1.29,2.01,4.93,3.06c3.51,1.02,8.18,1.58,13.17,1.58s9.67-.56,13.17-1.58c3.64-1.06,4.93-2.31,4.93-3.06s-1.29-2.01-4.93-3.06c-3.51-1.02-8.18-1.58-13.17-1.58Z"/>
        <circle class="cls-4" cx="36.41" cy="19.84" r="1.95"/>
        <path class="cls-3" d="M36.41,39.67c-1.92,0-3.56-2.14-4.73-6.18-1.06-3.66-1.65-8.51-1.65-13.66s.59-10,1.65-13.66c1.18-4.04,2.81-6.18,4.73-6.18s3.56,2.14,4.73,6.18c1.06,3.66,1.65,8.51,1.65,13.66s-.59,10-1.65,13.66c-1.18,4.04-2.81,6.18-4.73,6.18ZM36.41,1.73c-.75,0-2.01,1.29-3.06,4.93-1.02,3.51-1.58,8.2-1.58,13.17,0,4.99.56,9.67,1.58,13.17,1.06,3.64,2.31,4.93,3.06,4.93s2.01-1.29,3.06-4.93c1.02-3.51,1.58-8.18,1.58-13.17s-.56-9.67-1.58-13.17c-1.06-3.64-2.31-4.93-3.06-4.93Z"/>
        <path class="cls-5" d="M50.44,5.81c-1.36-1.36-4.03-1-7.72,1.03-3.33,1.83-7.16,4.84-10.8,8.46,0,0-.14,2.63-.13,2.63.43-.46.88-.92,1.33-1.37,3.53-3.53,7.23-6.44,10.43-8.2,2.18-1.2,3.7-1.62,4.64-1.62.49,0,.83.12,1.01.3.53.53.51,2.33-1.32,5.65-1.76,3.2-4.67,6.9-8.2,10.43-3.53,3.53-7.23,6.44-10.43,8.2-3.32,1.83-5.12,1.85-5.65,1.32-.53-.53-.51-2.33,1.32-5.65.96-1.74,2.26-3.64,3.82-5.57-.16-.03-.32-.07-.48-.13-.44-.17-.78-.46-.97-.83-1.58,1.97-2.91,3.91-3.89,5.7-2.03,3.69-2.38,6.36-1.03,7.72.54.54,1.29.81,2.23.81,1.42,0,3.27-.61,5.49-1.84,3.34-1.84,7.18-4.85,10.82-8.49,3.64-3.64,6.65-7.48,8.49-10.82,2.03-3.69,2.38-6.36,1.03-7.72Z"/>
        <g>
          <path class="cls-2" d="M40.9,15.3c-.8-.8-1.62-1.57-2.43-2.31-.38-.34-.52-.47-.71-.63-.33.27-1,.84-1.34,1.13,1.1.95,2.2,1.98,3.28,3.06.46.46.9.91,1.33,1.37-.02-.94-.08-1.79-.13-2.63Z"/>
          <path class="cls-2" d="M49.41,26.15c-.9-1.64-2.09-3.4-3.49-5.19-.08.23-.21.44-.37.62-.26.28-.63.41-.99.44,1.34,1.72,2.48,3.4,3.34,4.96,1.83,3.32,1.85,5.12,1.32,5.65-.53.53-2.33.51-5.65-1.32-3.2-1.76-6.9-4.67-10.43-8.2-3.53-3.53-6.44-7.23-8.2-10.43-1.83-3.32-1.85-5.12-1.32-5.65.18-.18.52-.3,1.01-.3.94,0,2.46.42,4.64,1.62.21.11.42.23.63.36-.07-.34-.07-.71,0-1.12.04-.27.18-.49.37-.67-.05-.03-.1-.06-.15-.09-3.69-2.03-6.36-2.38-7.72-1.03-1.36,1.36-1,4.03,1.03,7.72,1.84,3.34,4.85,7.18,8.49,10.82s7.48,6.65,10.82,8.49c2.22,1.22,4.07,1.84,5.49,1.84.94,0,1.69-.27,2.23-.81,1.36-1.36,1-4.03-1.03-7.72Z"/>
        </g>
        <path class="cls-1" d="M48.96,23.08c-3.43.91-7.85,1.41-12.54,1.41s-9.08-.49-12.51-1.4c-.2.56-.46,1.09-.76,1.59,3.61.99,8.3,1.54,13.26,1.54s10-.59,13.66-1.65c.32-.09.63-.19.93-.29-.75-.27-1.45-.66-2.04-1.2Z"/>
      </g>
      <g>
        <rect class="cls-5" x="0" y="75.13" width="72.83" height="1.67" transform="translate(72.83 151.93) rotate(-180)"/>
        <g>
          <rect class="cls-5" x="61.3" y="45.09" width="11.52" height="1.67" transform="translate(134.13 91.85) rotate(-180)"/>
          <rect class="cls-5" x="0" y="45.09" width="11.52" height="1.67" transform="translate(11.52 91.85) rotate(-180)"/>
          <g>
            <path class="cls-5" d="M14.06,44.03h2.79v.85h-1.87v.85h1.73v.85h-1.73v1.62h-.92v-4.16Z"/>
            <path class="cls-5" d="M19.73,44.03h.76l1.81,4.16h-1.03l-.36-.88h-1.61l-.35.88h-1.01l1.8-4.16ZM20.08,45.24l-.51,1.29h1.02l-.51-1.29Z"/>
            <path class="cls-5" d="M26.61,45.11c-.18-.22-.45-.34-.79-.34-.69,0-1.2.56-1.2,1.34s.51,1.34,1.17,1.34c.37,0,.67-.16.86-.45l.76.57c-.35.49-.93.72-1.5.72-1.3,0-2.24-.85-2.24-2.18s.95-2.18,2.24-2.18c.46,0,1.05.16,1.4.61l-.7.58Z"/>
            <path class="cls-5" d="M32.6,46.58c0,.98-.6,1.71-1.75,1.71s-1.76-.73-1.76-1.71v-2.55h.92v2.52c0,.51.35.9.84.9s.83-.39.83-.9v-2.52h.92v2.55Z"/>
            <path class="cls-5" d="M34.65,44.03h.92v3.31h1.7v.85h-2.61v-4.16Z"/>
            <path class="cls-5" d="M38.95,44.03h1.37c1.34,0,2.46.57,2.46,2.09,0,1.34-1.1,2.07-2.34,2.07h-1.5v-4.16ZM39.86,47.34h.48c.85,0,1.49-.32,1.49-1.27,0-.82-.65-1.2-1.43-1.2h-.54v2.47Z"/>
            <path class="cls-5" d="M45.95,44.03h.76l1.81,4.16h-1.03l-.36-.88h-1.61l-.35.88h-1.01l1.8-4.16ZM46.3,45.24l-.51,1.29h1.02l-.51-1.29Z"/>
            <path class="cls-5" d="M50.11,44.03h1.37c1.34,0,2.46.57,2.46,2.09,0,1.34-1.1,2.07-2.34,2.07h-1.5v-4.16ZM51.02,47.34h.48c.85,0,1.49-.32,1.49-1.27,0-.82-.65-1.2-1.43-1.2h-.54v2.47Z"/>
            <path class="cls-5" d="M55.78,44.03h2.82v.85h-1.91v.78h1.8v.85h-1.8v.85h2.01v.85h-2.93v-4.16Z"/>
          </g>
        </g>
        <g>
          <path class="cls-5" d="M10.74,50.78c2.71,0,8.01,1.13,8.01,4.73v2.35h-3.54v-1.19c0-1.55-2.53-2.26-4.38-2.26-3.78,0-6.76,2.71-6.76,7.12,0,4.14,3.04,7.47,6.88,7.47s6.4-2.8,6.4-2.8l2.05,2.8s-3.07,3.63-8.51,3.63C4.43,72.64.03,67.78.03,61.53s4.58-10.75,10.72-10.75Z"/>
          <path class="cls-5" d="M24.35,54.45h-1.94v-3.3h8.6c6.52,0,10.78,3.87,10.78,10.54s-4.26,10.6-10.78,10.6h-4.64c-1.43,0-2.02-.6-2.02-2.02v-15.81ZM28.9,68.97h1.91c4.23,0,6.94-2.53,6.94-7.29s-2.77-7.23-6.94-7.23h-2.56v13.87c0,.42.24.65.65.65Z"/>
          <path class="cls-5" d="M47.25,54.45h-1.94v-3.3h9.68c3.96,0,6.73,2.77,6.73,6.88s-2.77,6.97-6.73,6.97h-3.84v7.29h-3.9v-17.83ZM54.28,61.65c2.2,0,3.45-1.43,3.45-3.63s-1.25-3.57-3.39-3.57h-3.19v7.2h3.13Z"/>
          <polygon class="cls-5" points="66.99 68.97 64.88 68.97 64.88 72.28 72.8 72.28 72.8 68.97 70.68 68.97 70.68 54.45 72.8 54.45 72.8 51.14 64.88 51.14 64.88 54.45 66.99 54.45 66.99 68.97"/>
        </g>
      </g>
    </g>
  </g>
</svg>