<?xml version="1.0" encoding="UTF-8"?>
<svg id="Camada_2" data-name="Camada 2" xmlns="http://www.w3.org/2000/svg" viewBox="0 0 163.47 55.53">
  <defs>
    <style>
      .cls-1 {
        fill: #fff;
      }
    </style>
  </defs>
  <g id="Camada_1-2" data-name="Camada 1">
    <g>
      <g>
        <path class="cls-1" d="M27.84,19.91l-.07-.06c-.53.47-1.06.94-1.59,1.43.53,0,1.05-.02,1.58-.02s1.06,0,1.58.01c-.5-.46-1-.92-1.51-1.37Z"/>
        <circle class="cls-1" cx="27.76" cy="27.76" r="2.73"/>
        <path class="cls-1" d="M36.69,26.6c-.06-4.55-.44-8.9-1.11-12.74-.72.47-1.46.97-2.21,1.51.59,3.76.9,7.99.9,12.4,0,.53,0,1.06-.02,1.58.85-.91,1.66-1.83,2.43-2.75Z"/>
        <path class="cls-1" d="M25.31,16.84c.63-.55,1.26-1.09,1.88-1.6-1.26-1.02-2.51-1.96-3.74-2.82-.18.84-.34,1.72-.49,2.63.78.57,1.56,1.16,2.35,1.79Z"/>
        <path class="cls-1" d="M18.15,24.93c-.12.13-.24.27-.36.4.11.14.23.28.34.41,0-.27.01-.55.02-.82Z"/>
        <path class="cls-1" d="M18.3,21.78c.05-.83.12-1.66.2-2.47-1.61.17-3.16.39-4.63.65.47.73.97,1.46,1.51,2.21.95-.15,1.92-.28,2.93-.39Z"/>
        <path class="cls-1" d="M46.88,21.14c-.38-.11-.77-.22-1.17-.32-.43.71-.89,1.43-1.38,2.16.65.16,1.27.32,1.88.49,5.09,1.48,6.9,3.24,6.9,4.29s-1.81,2.81-6.9,4.29c-4.91,1.43-11.45,2.21-18.44,2.21s-13.53-.79-18.44-2.21c-5.09-1.48-6.9-3.24-6.9-4.29s1.81-2.81,6.9-4.29c.6-.17,1.23-.34,1.88-.49-.49-.73-.96-1.45-1.38-2.16-.4.1-.79.21-1.17.32-5.66,1.64-8.65,3.93-8.65,6.62s2.99,4.98,8.65,6.62c5.12,1.49,11.91,2.31,19.11,2.31s13.99-.82,19.11-2.31c5.66-1.64,8.65-3.93,8.65-6.62s-2.99-4.98-8.65-6.62Z"/>
        <path class="cls-1" d="M15.05,32.57c.57-.78,1.16-1.56,1.8-2.35-.55-.63-1.09-1.25-1.6-1.88-1.02,1.26-1.96,2.51-2.82,3.74.84.18,1.72.35,2.63.49Z"/>
        <path class="cls-1" d="M37.77,11.7c3.05-1.67,5.18-2.27,6.5-2.27.69,0,1.16.16,1.42.42.75.75.71,3.26-1.85,7.91-2.46,4.48-6.54,9.66-11.47,14.6-.37.37-.75.74-1.13,1.11,1.25-.05,2.47-.12,3.66-.22,3.41-3.5,6.4-7.11,8.71-10.51l.12-.17c.25-.36.48-.72.71-1.08,0,0,0-.02.02-.02.2-.32.4-.63.58-.93.33-.54.65-1.08.94-1.61,2.84-5.17,3.34-8.9,1.44-10.8-1.9-1.9-5.63-1.4-10.8,1.44-.51.28-1.03.58-1.56.9h0c-.7.43-1.4.87-2.08,1.34l-.05.03c-3.43,2.32-7.08,5.33-10.61,8.78-.1,1.2-.17,2.42-.22,3.66.36-.37.73-.75,1.1-1.12,4.94-4.94,10.12-9.01,14.6-11.47Z"/>
        <g>
          <path class="cls-1" d="M33.09,18.99c-.18-.01-.35-.02-.53-.03.2.18.39.37.59.56-.02-.18-.04-.35-.05-.53Z"/>
          <path class="cls-1" d="M37.03,19.31c.08.81.14,1.63.2,2.47,1,.11,1.99.24,2.93.39.54-.75,1.04-1.49,1.51-2.21-1.48-.26-3.03-.47-4.64-.64Z"/>
        </g>
        <g>
          <path class="cls-1" d="M37.38,24.92c0,.28.01.55.02.83.12-.14.24-.28.35-.42-.12-.14-.25-.27-.37-.41Z"/>
          <path class="cls-1" d="M33.25,20.63c-1.01-.98-2.02-1.93-3.04-2.84-.63.51-1.25,1.03-1.88,1.58,1.35,1.2,2.71,2.47,4.05,3.8.37.37.74.75,1.1,1.12-.05-1.24-.12-2.47-.22-3.67Z"/>
        </g>
        <path class="cls-1" d="M10.51,20.55c.18.3.37.6.57.92,0,0,0,.01.01.02.23.35.47.72.72,1.09l.13.2c2.31,3.39,5.29,6.99,8.69,10.48,1.19.1,2.42.17,3.66.22-.38-.36-.75-.73-1.13-1.11-4.94-4.94-9.01-10.12-11.47-14.6-2.56-4.65-2.59-7.17-1.85-7.91.26-.26.72-.42,1.42-.42,1.32,0,3.45.59,6.5,2.27.55.3,1.11.63,1.67.98.17-.86.35-1.7.55-2.51-.35-.21-.7-.41-1.05-.6-5.16-2.84-8.9-3.34-10.8-1.44-1.9,1.9-1.4,5.63,1.44,10.8.29.53.61,1.07.94,1.62Z"/>
        <path class="cls-1" d="M43.12,32.08c-.86-1.23-1.8-2.48-2.82-3.74-.52.63-1.05,1.25-1.6,1.88.63.79,1.23,1.57,1.79,2.35.91-.15,1.79-.31,2.63-.49Z"/>
        <path class="cls-1" d="M45.36,35.54c-.8.2-1.64.38-2.5.55.35.57.68,1.13.98,1.68,2.56,4.65,2.59,7.17,1.85,7.91-.75.74-3.26.71-7.91-1.85-2.83-1.56-5.95-3.76-9.1-6.42-.3,0-.6,0-.9,0-.95,0-1.9-.02-2.83-.04,4.01,3.61,8.05,6.59,11.67,8.58,3.11,1.71,5.7,2.57,7.68,2.57,1.31,0,2.36-.38,3.12-1.13,1.9-1.9,1.4-5.63-1.44-10.8-.19-.35-.39-.7-.6-1.06Z"/>
        <g>
          <path class="cls-1" d="M30.2,37.74c.13-.12.27-.24.4-.36-.27,0-.54.01-.81.02.14.11.27.23.41.34Z"/>
          <path class="cls-1" d="M25.31,38.69c-.79.63-1.58,1.24-2.35,1.8h0s-.36.26-.36.26c-.02.01-.04.03-.06.04-.26.19-.53.37-.79.55-.12.08-.24.17-.36.25-.1.07-.2.13-.3.2-.25.17-.49.33-.73.48l-.92.6h0c-.56.33-1.12.66-1.67.96-4.65,2.56-7.17,2.59-7.91,1.85-.75-.75-.71-3.26,1.85-7.91.3-.55.63-1.11.98-1.67-.87-.17-1.7-.35-2.5-.55-.21.36-.41.71-.6,1.06-2.84,5.17-3.34,8.9-1.44,10.8.76.76,1.8,1.13,3.12,1.13,1.98,0,4.57-.86,7.68-2.57,2.59-1.43,5.4-3.36,8.26-5.67-.63-.52-1.25-1.05-1.88-1.6Z"/>
        </g>
        <path class="cls-1" d="M19.31,37.03c.17,1.61.39,3.17.64,4.64.72-.47,1.46-.97,2.21-1.51-.15-.95-.28-1.93-.39-2.93-.83-.05-1.65-.12-2.46-.2Z"/>
        <path class="cls-1" d="M36.54,33.1c.01-.18.02-.36.03-.54-.19.2-.38.4-.57.59.18-.02.36-.03.54-.05Z"/>
        <g>
          <path class="cls-1" d="M18.97,32.56c0,.18.01.36.02.54.18.02.36.03.55.05-.19-.2-.38-.4-.57-.6Z"/>
          <path class="cls-1" d="M34.39,8.65c-1.64-5.66-3.93-8.65-6.62-8.65s-4.98,2.99-6.62,8.65c-.17.6-.34,1.22-.49,1.86-.02.1-.05.19-.07.29-.06.23-.11.47-.16.71-.04.19-.08.38-.12.57-.01.06-.03.13-.04.19-.04.18-.07.36-.11.54l-.05.24c-.77,4.03-1.2,8.68-1.26,13.55.78.92,1.59,1.83,2.44,2.75,0-.52-.02-1.05-.02-1.58,0-3.52.2-6.94.58-10.08h0c.37-3.09.92-5.93,1.63-8.35,1.48-5.09,3.24-6.9,4.29-6.9s2.81,1.81,4.29,6.9c.17.6.34,1.23.49,1.87.71-.48,1.42-.93,2.11-1.35.01,0,.03-.02.04-.03-.1-.4-.21-.79-.32-1.17Z"/>
        </g>
        <g>
          <path class="cls-1" d="M35.57,41.66c.26-1.47.48-3.02.65-4.63-.81.08-1.63.14-2.47.2-.11,1-.24,1.97-.39,2.92.75.54,1.49,1.04,2.21,1.51Z"/>
          <path class="cls-1" d="M32.55,44.32c-.15.65-.32,1.28-.49,1.88-1.48,5.09-3.24,6.9-4.29,6.9s-2.81-1.81-4.29-6.9c-.17-.6-.34-1.23-.49-1.87-.73.49-1.45.95-2.16,1.38.1.4.21.79.32,1.17,1.64,5.66,3.93,8.65,6.62,8.65s4.98-2.99,6.62-8.65c.11-.38.22-.77.32-1.17-.71-.43-1.43-.89-2.16-1.38Z"/>
        </g>
      </g>
      <g>
        <rect class="cls-1" x="61.57" y="48.43" width="101.9" height="2.34" transform="translate(225.04 99.2) rotate(-180)"/>
        <g>
          <rect class="cls-1" x="147.35" y="6.4" width="16.12" height="2.34" transform="translate(310.83 15.13) rotate(-180)"/>
          <rect class="cls-1" x="61.57" y="6.4" width="16.12" height="2.34" transform="translate(139.26 15.13) rotate(-180)"/>
          <g>
            <path class="cls-1" d="M81.25,4.91h3.9v1.18h-2.62v1.18h2.42v1.18h-2.42v2.27h-1.28v-5.82Z"/>
            <path class="cls-1" d="M89.18,4.91h1.06l2.53,5.82h-1.45l-.5-1.23h-2.26l-.48,1.23h-1.41l2.51-5.82ZM89.67,6.6l-.71,1.81h1.42l-.71-1.81Z"/>
            <path class="cls-1" d="M98.8,6.42c-.25-.3-.62-.48-1.1-.48-.97,0-1.68.79-1.68,1.87s.72,1.87,1.64,1.87c.52,0,.94-.23,1.2-.62l1.07.8c-.48.69-1.31,1.01-2.1,1.01-1.82,0-3.14-1.19-3.14-3.06s1.32-3.06,3.14-3.06c.65,0,1.47.22,1.96.85l-.99.81Z"/>
            <path class="cls-1" d="M107.18,8.48c0,1.37-.84,2.39-2.45,2.39s-2.46-1.02-2.46-2.39v-3.57h1.28v3.52c0,.71.49,1.26,1.17,1.26s1.17-.54,1.17-1.26v-3.52h1.28v3.57Z"/>
            <path class="cls-1" d="M110.06,4.91h1.28v4.63h2.37v1.18h-3.66v-5.82Z"/>
            <path class="cls-1" d="M116.07,4.91h1.92c1.87,0,3.44.8,3.44,2.92,0,1.88-1.54,2.89-3.27,2.89h-2.1v-5.82ZM117.35,9.54h.67c1.19,0,2.09-.45,2.09-1.77,0-1.14-.91-1.68-2-1.68h-.76v3.45Z"/>
            <path class="cls-1" d="M125.87,4.91h1.06l2.53,5.82h-1.45l-.5-1.23h-2.26l-.48,1.23h-1.41l2.51-5.82ZM126.36,6.6l-.71,1.81h1.42l-.71-1.81Z"/>
            <path class="cls-1" d="M131.69,4.91h1.92c1.87,0,3.44.8,3.44,2.92,0,1.88-1.54,2.89-3.27,2.89h-2.1v-5.82ZM132.97,9.54h.67c1.19,0,2.09-.45,2.09-1.77,0-1.14-.91-1.68-2-1.68h-.76v3.45Z"/>
            <path class="cls-1" d="M139.62,4.91h3.95v1.18h-2.67v1.09h2.52v1.18h-2.52v1.18h2.82v1.18h-4.1v-5.82Z"/>
          </g>
        </g>
        <g>
          <path class="cls-1" d="M76.6,14.36c3.79,0,11.21,1.58,11.21,6.62v3.29h-4.96v-1.67c0-2.17-3.54-3.17-6.12-3.17-5.29,0-9.46,3.79-9.46,9.96,0,5.79,4.25,10.46,9.62,10.46s8.96-3.92,8.96-3.92l2.87,3.92s-4.29,5.08-11.91,5.08c-9.04,0-15.2-6.79-15.2-15.54s6.42-15.04,15-15.04Z"/>
          <path class="cls-1" d="M95.64,19.49h-2.71v-4.62h12.04c9.12,0,15.08,5.42,15.08,14.75s-5.96,14.83-15.08,14.83h-6.5c-2,0-2.83-.83-2.83-2.83v-22.12ZM102.01,39.82h2.67c5.92,0,9.71-3.54,9.71-10.21s-3.87-10.12-9.71-10.12h-3.58v19.41c0,.58.33.92.92.92Z"/>
          <path class="cls-1" d="M127.69,19.49h-2.71v-4.62h13.54c5.54,0,9.41,3.87,9.41,9.62s-3.87,9.75-9.41,9.75h-5.37v10.21h-5.46v-24.95ZM137.52,29.57c3.08,0,4.83-2,4.83-5.08s-1.75-5-4.75-5h-4.46v10.08h4.37Z"/>
          <polygon class="cls-1" points="155.31 39.82 152.35 39.82 152.35 44.44 163.44 44.44 163.44 39.82 160.48 39.82 160.48 19.49 163.44 19.49 163.44 14.86 152.36 14.86 152.36 19.49 155.31 19.49 155.31 39.82"/>
        </g>
      </g>
    </g>
  </g>
</svg>