<?xml version="1.0" encoding="UTF-8"?>
<svg id="Camada_2" data-name="Camada 2" xmlns="http://www.w3.org/2000/svg" viewBox="0 0 99.98 33.96">
  <defs>
    <style>
      .cls-1 {
        fill: #fff;
      }
    </style>
  </defs>
  <g id="Camada_1-2" data-name="Camada 1">
    <g>
      <g>
        <path class="cls-1" d="M17.03,12.18l-.04-.04c-.32.28-.65.57-.97.87.32,0,.64,0,.97,0s.65,0,.97,0c-.31-.28-.61-.56-.92-.84Z"/>
        <circle class="cls-1" cx="16.98" cy="16.98" r="1.67"/>
        <path class="cls-1" d="M22.44,16.27c-.03-2.78-.27-5.45-.68-7.79-.44.29-.89.6-1.35.92.36,2.3.55,4.89.55,7.58,0,.32,0,.65,0,.97.52-.56,1.02-1.12,1.49-1.68Z"/>
        <path class="cls-1" d="M15.48,10.3c.38-.34.77-.66,1.15-.98-.77-.62-1.54-1.2-2.29-1.73-.11.51-.21,1.05-.3,1.61.47.35.95.71,1.44,1.1Z"/>
        <path class="cls-1" d="M11.1,15.25c-.07.08-.15.16-.22.25.07.08.14.17.21.25,0-.17,0-.33.01-.5Z"/>
        <path class="cls-1" d="M11.19,13.32c.03-.51.07-1.01.12-1.51-.98.1-1.93.24-2.83.4.29.44.59.9.92,1.35.58-.09,1.18-.17,1.79-.24Z"/>
        <path class="cls-1" d="M28.67,12.93c-.23-.07-.47-.13-.72-.2-.26.43-.54.87-.85,1.32.4.09.78.2,1.15.3,3.12.91,4.22,1.98,4.22,2.62s-1.11,1.72-4.22,2.62c-3,.87-7.01,1.35-11.27,1.35s-8.27-.48-11.27-1.35c-3.12-.91-4.22-1.98-4.22-2.62s1.11-1.72,4.22-2.62c.37-.11.75-.21,1.15-.3-.3-.45-.59-.89-.85-1.32-.24.06-.48.13-.72.2-3.46,1.01-5.29,2.41-5.29,4.05s1.83,3.04,5.29,4.05c3.13.91,7.28,1.41,11.69,1.41s8.56-.5,11.69-1.41c3.46-1.01,5.29-2.41,5.29-4.05s-1.83-3.04-5.29-4.05Z"/>
        <path class="cls-1" d="M9.2,19.92c.35-.48.71-.96,1.1-1.44-.34-.38-.66-.77-.98-1.15-.62.77-1.2,1.54-1.73,2.29.52.11,1.05.21,1.61.3Z"/>
        <path class="cls-1" d="M23.1,7.15c1.86-1.02,3.17-1.39,3.97-1.39.42,0,.71.1.87.26.46.46.43,2-1.13,4.84-1.51,2.74-4,5.91-7.02,8.93-.23.23-.46.45-.69.68.76-.03,1.51-.07,2.24-.13,2.09-2.14,3.91-4.35,5.33-6.43l.07-.1c.15-.22.3-.44.43-.66,0,0,0,0,0-.01.12-.19.24-.38.35-.57.2-.33.39-.66.57-.98,1.74-3.16,2.04-5.44.88-6.6-1.16-1.16-3.45-.86-6.6.88-.31.17-.63.36-.95.55h0c-.43.26-.86.53-1.27.82l-.03.02c-2.1,1.42-4.33,3.26-6.49,5.37-.06.73-.1,1.48-.13,2.24.22-.23.44-.46.67-.68,3.02-3.02,6.19-5.51,8.93-7.02Z"/>
        <g>
          <path class="cls-1" d="M20.24,11.62c-.11,0-.22-.01-.33-.02.12.11.24.23.36.34-.01-.11-.02-.22-.03-.32Z"/>
          <path class="cls-1" d="M22.64,11.81c.05.5.09,1,.12,1.51.61.07,1.22.15,1.79.24.33-.46.64-.91.92-1.35-.9-.16-1.85-.29-2.84-.39Z"/>
        </g>
        <g>
          <path class="cls-1" d="M22.86,15.24c0,.17,0,.34.01.51.07-.09.14-.17.21-.26-.07-.08-.15-.17-.23-.25Z"/>
          <path class="cls-1" d="M20.33,12.61c-.62-.6-1.24-1.18-1.86-1.74-.38.31-.77.63-1.15.96.83.73,1.66,1.51,2.47,2.33.23.23.45.46.67.69-.03-.76-.08-1.51-.14-2.24Z"/>
        </g>
        <path class="cls-1" d="M6.43,12.57c.11.18.23.37.35.56,0,0,0,0,0,.01.14.22.29.44.44.66l.08.12c1.41,2.07,3.23,4.27,5.32,6.41.73.06,1.48.11,2.24.13-.23-.22-.46-.45-.69-.68-3.02-3.02-5.51-6.19-7.02-8.93-1.56-2.84-1.59-4.38-1.13-4.84.16-.16.44-.26.87-.26.81,0,2.11.36,3.97,1.39.33.18.68.38,1.02.6.1-.53.21-1.04.33-1.53-.22-.13-.43-.25-.64-.37-3.16-1.74-5.44-2.04-6.6-.88-1.16,1.16-.86,3.45.88,6.6.18.32.37.66.58.99Z"/>
        <path class="cls-1" d="M26.37,19.62c-.53-.75-1.1-1.52-1.72-2.29-.32.38-.64.77-.98,1.15.39.48.75.96,1.1,1.44.55-.09,1.09-.19,1.61-.3Z"/>
        <path class="cls-1" d="M27.74,21.74c-.49.12-1,.23-1.53.34.21.35.41.69.6,1.02,1.56,2.84,1.59,4.38,1.13,4.84-.46.46-2,.43-4.84-1.13-1.73-.95-3.64-2.3-5.57-3.93-.18,0-.37,0-.55,0-.58,0-1.16,0-1.73-.03,2.45,2.21,4.92,4.03,7.14,5.25,1.9,1.05,3.49,1.57,4.7,1.57.8,0,1.44-.23,1.91-.69,1.16-1.16.86-3.45-.88-6.6-.12-.21-.24-.43-.37-.65Z"/>
        <g>
          <path class="cls-1" d="M18.47,23.08c.08-.07.16-.15.25-.22-.17,0-.33,0-.5.01.08.07.17.14.25.21Z"/>
          <path class="cls-1" d="M15.48,23.66c-.48.39-.96.76-1.44,1.1h0s-.22.16-.22.16c-.01,0-.02.02-.04.03-.16.12-.32.23-.48.34-.07.05-.15.1-.22.15-.06.04-.12.08-.18.12-.15.1-.3.2-.45.3l-.56.36h0c-.35.2-.69.4-1.02.58-2.84,1.56-4.38,1.58-4.84,1.13-.46-.46-.43-2,1.13-4.84.18-.34.38-.68.6-1.02-.53-.1-1.04-.22-1.53-.34-.13.22-.25.43-.37.65-1.74,3.16-2.04,5.44-.88,6.6.46.46,1.1.69,1.91.69,1.21,0,2.8-.53,4.7-1.57,1.59-.87,3.3-2.06,5.05-3.47-.38-.32-.77-.64-1.15-.98Z"/>
        </g>
        <path class="cls-1" d="M11.81,22.65c.1.98.24,1.94.39,2.84.44-.29.89-.6,1.35-.92-.09-.58-.17-1.18-.24-1.79-.51-.03-1.01-.07-1.51-.12Z"/>
        <path class="cls-1" d="M22.34,20.24c0-.11.01-.22.02-.33-.11.12-.23.24-.35.36.11-.01.22-.02.33-.03Z"/>
        <g>
          <path class="cls-1" d="M11.6,19.91c0,.11,0,.22.01.33.11.01.22.02.33.03-.12-.12-.23-.24-.35-.36Z"/>
          <path class="cls-1" d="M21.03,5.29c-1.01-3.46-2.41-5.29-4.05-5.29s-3.04,1.83-4.05,5.29c-.11.36-.21.74-.3,1.14-.01.06-.03.12-.04.18-.03.14-.07.29-.1.43-.02.11-.05.23-.07.35,0,.04-.02.08-.02.12-.02.11-.04.22-.07.33l-.03.14c-.47,2.46-.74,5.31-.77,8.29.47.56.97,1.12,1.49,1.68,0-.32,0-.64,0-.97,0-2.16.12-4.24.36-6.17h0c.23-1.89.56-3.62.99-5.11.9-3.12,1.98-4.22,2.62-4.22s1.72,1.11,2.62,4.22c.11.37.21.75.3,1.15.44-.29.87-.57,1.29-.83,0,0,.02-.01.03-.02-.06-.24-.13-.48-.2-.72Z"/>
        </g>
        <g>
          <path class="cls-1" d="M21.75,25.48c.16-.9.29-1.85.4-2.83-.5.05-1,.09-1.51.12-.07.61-.15,1.21-.24,1.79.46.33.91.64,1.35.92Z"/>
          <path class="cls-1" d="M19.9,27.11c-.09.4-.19.78-.3,1.15-.91,3.12-1.98,4.22-2.62,4.22s-1.72-1.11-2.62-4.22c-.11-.37-.21-.75-.3-1.15-.45.3-.89.58-1.32.84.06.24.13.48.2.72,1.01,3.46,2.41,5.29,4.05,5.29s3.04-1.83,4.05-5.29c.07-.23.13-.47.2-.72-.43-.26-.87-.54-1.32-.85Z"/>
        </g>
      </g>
      <g>
        <rect class="cls-1" x="37.65" y="29.62" width="62.32" height="1.43" transform="translate(137.63 60.67) rotate(-180)"/>
        <g>
          <rect class="cls-1" x="90.12" y="3.91" width="9.86" height="1.43" transform="translate(190.09 9.26) rotate(-180)"/>
          <rect class="cls-1" x="37.65" y="3.91" width="9.86" height="1.43" transform="translate(85.17 9.26) rotate(-180)"/>
          <g>
            <path class="cls-1" d="M49.69,3h2.39v.72h-1.6v.72h1.48v.72h-1.48v1.39h-.78v-3.56Z"/>
            <path class="cls-1" d="M54.54,3h.65l1.55,3.56h-.88l-.31-.75h-1.38l-.3.75h-.86l1.54-3.56ZM54.84,4.04l-.43,1.11h.87l-.44-1.11Z"/>
            <path class="cls-1" d="M60.43,3.93c-.16-.19-.38-.29-.67-.29-.59,0-1.03.48-1.03,1.15s.44,1.15,1,1.15c.32,0,.57-.14.73-.38l.65.49c-.3.42-.8.62-1.29.62-1.11,0-1.92-.73-1.92-1.87s.81-1.87,1.92-1.87c.4,0,.9.14,1.2.52l-.6.49Z"/>
            <path class="cls-1" d="M65.55,5.19c0,.84-.51,1.46-1.5,1.46s-1.5-.62-1.5-1.46v-2.19h.78v2.16c0,.44.3.77.72.77s.71-.33.71-.77v-2.16h.78v2.19Z"/>
            <path class="cls-1" d="M67.31,3h.78v2.83h1.45v.72h-2.24v-3.56Z"/>
            <path class="cls-1" d="M70.98,3h1.18c1.15,0,2.11.49,2.11,1.79,0,1.15-.94,1.77-2,1.77h-1.28v-3.56ZM71.77,5.84h.41c.73,0,1.28-.28,1.28-1.08,0-.7-.56-1.03-1.22-1.03h-.46v2.11Z"/>
            <path class="cls-1" d="M76.98,3h.65l1.55,3.56h-.88l-.31-.75h-1.38l-.3.75h-.86l1.54-3.56ZM77.28,4.04l-.43,1.11h.87l-.44-1.11Z"/>
            <path class="cls-1" d="M80.54,3h1.18c1.15,0,2.11.49,2.11,1.79,0,1.15-.94,1.77-2,1.77h-1.28v-3.56ZM81.32,5.84h.41c.73,0,1.28-.28,1.28-1.08,0-.7-.56-1.03-1.22-1.03h-.46v2.11Z"/>
            <path class="cls-1" d="M85.39,3h2.42v.72h-1.63v.66h1.54v.72h-1.54v.72h1.72v.72h-2.51v-3.56Z"/>
          </g>
        </g>
        <g>
          <path class="cls-1" d="M46.85,8.78c2.32,0,6.85.97,6.85,4.05v2.01h-3.03v-1.02c0-1.32-2.17-1.94-3.75-1.94-3.24,0-5.78,2.32-5.78,6.09,0,3.54,2.6,6.39,5.89,6.39s5.48-2.39,5.48-2.39l1.76,2.39s-2.62,3.11-7.29,3.11c-5.53,0-9.3-4.15-9.3-9.5s3.92-9.2,9.17-9.2Z"/>
          <path class="cls-1" d="M58.49,11.92h-1.66v-2.83h7.36c5.58,0,9.22,3.31,9.22,9.02s-3.64,9.07-9.22,9.07h-3.97c-1.22,0-1.73-.51-1.73-1.73v-13.53ZM62.39,24.35h1.63c3.62,0,5.94-2.17,5.94-6.24s-2.37-6.19-5.94-6.19h-2.19v11.87c0,.36.2.56.56.56Z"/>
          <path class="cls-1" d="M78.09,11.92h-1.66v-2.83h8.28c3.39,0,5.76,2.37,5.76,5.88s-2.37,5.96-5.76,5.96h-3.29v6.24h-3.34v-15.26ZM84.1,18.08c1.89,0,2.96-1.22,2.96-3.11s-1.07-3.06-2.9-3.06h-2.73v6.17h2.68Z"/>
          <polygon class="cls-1" points="94.98 24.35 93.18 24.35 93.18 27.18 99.95 27.18 99.95 24.35 98.14 24.35 98.14 11.92 99.95 11.92 99.95 9.09 93.18 9.09 93.18 11.92 94.98 11.92 94.98 24.35"/>
        </g>
      </g>
    </g>
  </g>
</svg>